<svg width="196" height="50" viewBox="0 0 196 50" fill="none" xmlns="http://www.w3.org/2000/svg">
<rect x="108" width="85" height="50" rx="5" fill="#FF9900"/>
<path d="M136.879 41H131.059V28.5977H119.477V41H113.617V12.4453H119.477V23.7148H131.059V12.4453H136.879V41ZM163.559 19.2031V41H159.125L158.363 38.1875H158.051C157.582 38.9297 156.996 39.5417 156.293 40.0234C155.59 40.4922 154.815 40.8372 153.969 41.0586C153.122 41.2799 152.243 41.3906 151.332 41.3906C149.757 41.3906 148.389 41.1172 147.23 40.5703C146.072 40.0104 145.173 39.1445 144.535 37.9727C143.897 36.8008 143.578 35.2839 143.578 33.4219V19.2031H149.32V32.0352C149.32 33.6107 149.607 34.8021 150.18 35.6094C150.766 36.4036 151.69 36.8008 152.953 36.8008C154.19 36.8008 155.16 36.5208 155.863 35.9609C156.579 35.401 157.081 34.5807 157.367 33.5C157.654 32.4193 157.797 31.0977 157.797 29.5352V19.2031H163.559ZM175.629 10.6094V17.7188C175.629 18.5391 175.603 19.3529 175.551 20.1602C175.512 20.9674 175.46 21.599 175.395 22.0547H175.629C176.202 21.1432 176.983 20.375 177.973 19.75C178.975 19.112 180.271 18.793 181.859 18.793C184.32 18.793 186.312 19.75 187.836 21.6641C189.372 23.5651 190.141 26.3646 190.141 30.0625C190.141 32.5365 189.789 34.6198 189.086 36.3125C188.383 37.9922 187.393 39.2617 186.117 40.1211C184.854 40.9674 183.383 41.3906 181.703 41.3906C180.102 41.3906 178.832 41.1042 177.895 40.5312C176.957 39.9453 176.202 39.2878 175.629 38.5586H175.219L174.262 41H169.867V10.6094H175.629ZM180.043 23.4023C178.962 23.4023 178.103 23.6237 177.465 24.0664C176.84 24.5091 176.384 25.1732 176.098 26.0586C175.811 26.944 175.655 28.0638 175.629 29.418V30.0234C175.629 32.1979 175.948 33.8581 176.586 35.0039C177.237 36.1497 178.415 36.7227 180.121 36.7227C181.397 36.7227 182.406 36.1432 183.148 34.9844C183.904 33.8255 184.281 32.1589 184.281 29.9844C184.281 27.8099 183.904 26.1693 183.148 25.0625C182.406 23.9557 181.371 23.4023 180.043 23.4023Z" fill="black"/>
<path d="M35.6309 33.1011C35.6309 35.0054 35.1694 36.6606 34.2466 38.0669C33.3237 39.4731 31.9834 40.5571 30.2256 41.3188C28.4678 42.0659 26.3364 42.4395 23.8315 42.4395C22.7036 42.4395 21.605 42.3662 20.5356 42.2197C19.481 42.0732 18.4702 41.8608 17.5034 41.5825C16.5366 41.3042 15.6211 40.96 14.7568 40.5498V34.4194C16.251 35.0786 17.811 35.6719 19.437 36.1992C21.0776 36.7266 22.7109 36.9902 24.3369 36.9902C25.4795 36.9902 26.4097 36.8438 27.1274 36.5508C27.8452 36.2432 28.3652 35.8257 28.6875 35.2983C29.0098 34.7563 29.1709 34.1338 29.1709 33.4307C29.1709 32.6104 28.8999 31.9072 28.3579 31.3213C27.8306 30.7354 27.0835 30.1934 26.1167 29.6953C25.1646 29.1826 24.0659 28.6333 22.8208 28.0474C22.0298 27.6958 21.1875 27.2637 20.2939 26.751C19.415 26.2383 18.5801 25.6157 17.7891 24.8833C16.998 24.1509 16.3535 23.2646 15.8555 22.2246C15.3721 21.1846 15.1304 19.9395 15.1304 18.4893C15.1304 16.585 15.5698 14.959 16.4487 13.6113C17.3276 12.249 18.5801 11.209 20.2061 10.4912C21.832 9.77344 23.751 9.41455 25.9629 9.41455C27.6328 9.41455 29.2222 9.60498 30.731 9.98584C32.2397 10.3667 33.8071 10.916 35.4331 11.6338L33.3237 16.7754C31.8589 16.1895 30.5332 15.7354 29.3467 15.4131C28.1748 15.0762 26.9736 14.9077 25.7432 14.9077C24.8643 14.9077 24.1099 15.0469 23.48 15.3252C22.8501 15.6035 22.374 15.999 22.0518 16.5117C21.7295 17.0244 21.5684 17.6177 21.5684 18.2915C21.5684 19.0679 21.7881 19.7271 22.2275 20.269C22.6816 20.811 23.3628 21.3311 24.271 21.8291C25.1938 22.3125 26.3438 22.8765 27.7207 23.521C29.376 24.2827 30.7896 25.0884 31.9614 25.938C33.1479 26.7729 34.0562 27.7544 34.686 28.8823C35.3159 30.0103 35.6309 31.4165 35.6309 33.1011ZM63.3384 17.4785V42H58.3506L57.4937 38.8359H57.1421C56.6147 39.6709 55.9556 40.3594 55.1646 40.9014C54.3735 41.4287 53.502 41.8169 52.5498 42.0659C51.5977 42.3149 50.6089 42.4395 49.5835 42.4395C47.811 42.4395 46.2729 42.1318 44.9692 41.5166C43.6655 40.8867 42.6548 39.9126 41.937 38.5942C41.2192 37.2759 40.8604 35.5693 40.8604 33.4746V17.4785H47.3203V31.9146C47.3203 33.687 47.6426 35.0273 48.2871 35.9355C48.9463 36.8291 49.9863 37.2759 51.4072 37.2759C52.7988 37.2759 53.8901 36.9609 54.6812 36.3311C55.4868 35.7012 56.0508 34.7783 56.373 33.5625C56.6953 32.3467 56.8564 30.8599 56.8564 29.1021V17.4785H63.3384ZM76.9175 7.81055V15.8086C76.9175 16.7314 76.8882 17.647 76.8296 18.5552C76.7856 19.4634 76.7271 20.1738 76.6538 20.6865H76.9175C77.562 19.6611 78.4409 18.7969 79.5542 18.0938C80.6821 17.376 82.1396 17.0171 83.9268 17.0171C86.6953 17.0171 88.9365 18.0938 90.6504 20.2471C92.3789 22.3857 93.2432 25.5352 93.2432 29.6953C93.2432 32.4785 92.8477 34.8223 92.0566 36.7266C91.2656 38.6162 90.1523 40.0444 88.7168 41.0112C87.2959 41.9634 85.6406 42.4395 83.751 42.4395C81.9492 42.4395 80.521 42.1172 79.4663 41.4727C78.4116 40.8135 77.562 40.0737 76.9175 39.2534H76.4561L75.3794 42H70.4355V7.81055H76.9175ZM81.8833 22.2026C80.6675 22.2026 79.7007 22.4517 78.9829 22.9497C78.2798 23.4478 77.7671 24.1948 77.4448 25.1909C77.1226 26.187 76.9468 27.4468 76.9175 28.9702V29.6514C76.9175 32.0977 77.2764 33.9653 77.9941 35.2544C78.7266 36.5435 80.0522 37.188 81.9712 37.188C83.4067 37.188 84.542 36.5361 85.377 35.2324C86.2266 33.9287 86.6514 32.0537 86.6514 29.6074C86.6514 27.1611 86.2266 25.3154 85.377 24.0703C84.542 22.8252 83.3774 22.2026 81.8833 22.2026Z" fill="black"/>
</svg>
