<svg width="530" height="106" viewBox="0 0 530 106" fill="none" xmlns="http://www.w3.org/2000/svg">
<path d="M59.3764 30.1719C58.9124 25.83 56.9569 22.4493 53.5099 20.0298C50.0961 17.6103 45.6548 16.4006 40.1861 16.4006C36.3414 16.4006 33.0436 16.9806 30.2926 18.1406C27.5417 19.3007 25.437 20.875 23.9787 22.8636C22.5204 24.8523 21.7746 27.1226 21.7415 29.6747C21.7415 31.7959 22.2221 33.6354 23.1832 35.1932C24.1776 36.7509 25.5199 38.0767 27.2102 39.1705C28.9006 40.2311 30.7732 41.1259 32.8281 41.8551C34.8831 42.5843 36.9545 43.1974 39.0426 43.6946L48.5881 46.081C52.4328 46.9758 56.1283 48.1856 59.6747 49.7102C63.2543 51.2348 66.4527 53.1572 69.2699 55.4773C72.1203 57.7973 74.3741 60.598 76.0312 63.8793C77.6884 67.1605 78.517 71.0052 78.517 75.4134C78.517 81.3793 76.9924 86.6326 73.9432 91.1733C70.8939 95.6809 66.4858 99.2107 60.7188 101.763C54.9848 104.282 48.0412 105.541 39.8878 105.541C31.9664 105.541 25.089 104.315 19.2557 101.862C13.4555 99.4096 8.91477 95.83 5.63352 91.1236C2.38542 86.4171 0.628788 80.6832 0.363637 73.9219H18.5099C18.7751 77.4683 19.8688 80.4181 21.7912 82.7713C23.7135 85.1245 26.2159 86.8812 29.2983 88.0412C32.4138 89.2012 35.8939 89.7812 39.7386 89.7812C43.7491 89.7812 47.2623 89.1847 50.2784 87.9915C53.3277 86.7652 55.714 85.0748 57.4375 82.9205C59.161 80.733 60.0393 78.1809 60.0724 75.2642C60.0393 72.6127 59.2604 70.4252 57.7358 68.7017C56.2112 66.9451 54.0734 65.4867 51.3224 64.3267C48.6046 63.1335 45.4228 62.0729 41.777 61.1449L30.1932 58.1619C21.8078 56.0076 15.179 52.7429 10.3068 48.3679C5.4678 43.9598 3.0483 38.1098 3.0483 30.8182C3.0483 24.8191 4.67235 19.5658 7.92045 15.0582C11.2017 10.5507 15.6596 7.05398 21.294 4.56818C26.9285 2.04924 33.3087 0.789769 40.4347 0.789769C47.66 0.789769 53.9905 2.04924 59.4261 4.56818C64.8949 7.05398 69.187 10.5175 72.3026 14.9588C75.4181 19.3669 77.0256 24.438 77.125 30.1719H59.3764ZM142.837 71.8835V27.6364H160.834V104H143.384V90.4276H142.588C140.865 94.7031 138.031 98.1998 134.087 100.918C130.176 103.635 125.354 104.994 119.62 104.994C114.615 104.994 110.19 103.884 106.346 101.663C102.534 99.4096 99.551 96.1449 97.3967 91.8693C95.2423 87.5606 94.1651 82.357 94.1651 76.2585V27.6364H112.162V73.4744C112.162 78.3134 113.488 82.1581 116.14 85.0085C118.791 87.8589 122.271 89.2841 126.58 89.2841C129.231 89.2841 131.8 88.6378 134.286 87.3452C136.772 86.0526 138.81 84.1302 140.401 81.5781C142.025 78.9929 142.837 75.7614 142.837 71.8835ZM180.136 104V2.18182H198.134V40.2642H198.879C199.807 38.4081 201.116 36.4361 202.807 34.348C204.497 32.2268 206.784 30.4205 209.668 28.929C212.551 27.4044 216.23 26.642 220.705 26.642C226.604 26.642 231.924 28.1501 236.663 31.1662C241.436 34.1491 245.214 38.5739 247.999 44.4403C250.816 50.2737 252.224 57.4328 252.224 65.9176C252.224 74.303 250.849 81.429 248.098 87.2955C245.347 93.1619 241.602 97.6364 236.862 100.719C232.123 103.801 226.753 105.342 220.754 105.342C216.379 105.342 212.75 104.613 209.866 103.155C206.983 101.696 204.663 99.9399 202.906 97.8849C201.183 95.7969 199.84 93.8248 198.879 91.9688H197.835V104H180.136ZM197.786 65.8182C197.786 70.7566 198.482 75.0819 199.874 78.794C201.299 82.5062 203.337 85.4062 205.989 87.4943C208.673 89.5492 211.921 90.5767 215.733 90.5767C219.71 90.5767 223.041 89.5161 225.726 87.3949C228.411 85.2405 230.432 82.3073 231.791 78.5952C233.183 74.8499 233.879 70.5909 233.879 65.8182C233.879 61.0786 233.2 56.8693 231.841 53.1903C230.482 49.5114 228.46 46.6278 225.776 44.5398C223.091 42.4517 219.743 41.4077 215.733 41.4077C211.888 41.4077 208.624 42.4186 205.939 44.4403C203.254 46.4621 201.216 49.2959 199.824 52.9418C198.465 56.5876 197.786 60.8797 197.786 65.8182ZM268.32 104V2.18182H286.765V45.2855H333.945V2.18182H352.439V104H333.945V60.7472H286.765V104H268.32ZM420.376 71.8835V27.6364H438.373V104H420.923V90.4276H420.127C418.404 94.7031 415.57 98.1998 411.626 100.918C407.715 103.635 402.893 104.994 397.159 104.994C392.154 104.994 387.729 103.884 383.885 101.663C380.073 99.4096 377.09 96.1449 374.936 91.8693C372.781 87.5606 371.704 82.357 371.704 76.2585V27.6364H389.701V73.4744C389.701 78.3134 391.027 82.1581 393.679 85.0085C396.33 87.8589 399.81 89.2841 404.119 89.2841C406.77 89.2841 409.339 88.6378 411.825 87.3452C414.311 86.0526 416.349 84.1302 417.94 81.5781C419.564 78.9929 420.376 75.7614 420.376 71.8835ZM457.675 104V2.18182H475.673V40.2642H476.418C477.346 38.4081 478.656 36.4361 480.346 34.348C482.036 32.2268 484.323 30.4205 487.207 28.929C490.09 27.4044 493.769 26.642 498.244 26.642C504.143 26.642 509.463 28.1501 514.202 31.1662C518.975 34.1491 522.754 38.5739 525.538 44.4403C528.355 50.2737 529.763 57.4328 529.763 65.9176C529.763 74.303 528.388 81.429 525.637 87.2955C522.886 93.1619 519.141 97.6364 514.401 100.719C509.662 103.801 504.292 105.342 498.293 105.342C493.918 105.342 490.289 104.613 487.406 103.155C484.522 101.696 482.202 99.9399 480.445 97.8849C478.722 95.7969 477.379 93.8248 476.418 91.9688H475.374V104H457.675ZM475.325 65.8182C475.325 70.7566 476.021 75.0819 477.413 78.794C478.838 82.5062 480.876 85.4062 483.528 87.4943C486.212 89.5492 489.46 90.5767 493.272 90.5767C497.249 90.5767 500.58 89.5161 503.265 87.3949C505.95 85.2405 507.971 82.3073 509.33 78.5952C510.722 74.8499 511.418 70.5909 511.418 65.8182C511.418 61.0786 510.739 56.8693 509.38 53.1903C508.021 49.5114 505.999 46.6278 503.315 44.5398C500.63 42.4517 497.282 41.4077 493.272 41.4077C489.427 41.4077 486.163 42.4186 483.478 44.4403C480.793 46.4621 478.755 49.2959 477.363 52.9418C476.004 56.5876 475.325 60.8797 475.325 65.8182Z" fill="url(#paint0_linear_3354_106)"/>
<defs>
<linearGradient id="paint0_linear_3354_106" x1="505.5" y1="-27" x2="505.5" y2="133" gradientUnits="userSpaceOnUse">
<stop offset="0.9997" stop-color="white"/>
<stop offset="0.9998" stop-color="#010039" stop-opacity="0.115673"/>
<stop offset="0.9999" stop-color="#218BFF" stop-opacity="0.994792"/>
<stop offset="1" stop-color="#218BFF" stop-opacity="0"/>
</linearGradient>
</defs>
</svg>
