<svg width="171" height="212" viewBox="0 0 171 212" fill="none" xmlns="http://www.w3.org/2000/svg">
<mask id="mask0_4_8" style="mask-type:luminance" maskUnits="userSpaceOnUse" x="0" y="0" width="171" height="212">
<path d="M170.692 0H0V211.823H170.692V0Z" fill="white"/>
</mask>
<g mask="url(#mask0_4_8)">
<path d="M95.214 90.085C91.3396 90.085 87.6238 88.5459 84.8842 85.8063C82.1446 83.0666 80.6055 79.3509 80.6055 75.4765C80.6055 71.6021 82.1446 67.8864 84.8842 65.1467C87.6238 62.4071 91.3396 60.868 95.214 60.868C107.479 60.8545 119.237 55.9765 127.91 47.3043C136.582 38.632 141.461 26.8737 141.475 14.609C141.475 10.7346 143.014 7.01885 145.754 4.27922C148.493 1.5396 152.209 0.000488281 156.083 0.000488281C159.958 0.000488281 163.674 1.5396 166.413 4.27922C169.153 7.01885 170.692 10.7346 170.692 14.609C170.669 34.6198 162.71 53.8045 148.56 67.9541C134.41 82.1038 115.225 90.0628 95.214 90.085Z" fill="#EC6C0C"/>
<path d="M14.609 211.823C10.7345 211.823 7.01862 210.284 4.2789 207.544C1.53918 204.804 0 201.089 0 197.214C0.0224981 177.203 7.9819 158.018 22.1319 143.868C36.282 129.718 55.467 121.759 75.478 121.737C79.3524 121.737 83.0681 123.276 85.8078 126.016C88.5474 128.755 90.0865 132.471 90.0865 136.346C90.0865 140.22 88.5474 143.936 85.8078 146.675C83.0681 149.415 79.3524 150.954 75.478 150.954C63.2132 150.968 51.4547 155.846 42.7821 164.518C34.1095 173.191 29.231 184.949 29.217 197.214C29.217 201.088 27.678 204.804 24.9385 207.544C22.199 210.284 18.4834 211.823 14.609 211.823Z" fill="#BE3818"/>
<path d="M95.214 211.823C91.3605 211.791 87.6757 210.238 84.9621 207.502C82.2484 204.766 80.7258 201.068 80.7258 197.214C80.7258 193.361 82.2484 189.663 84.9621 186.927C87.6757 184.191 91.3605 182.638 95.214 182.606C101.289 182.606 107.305 181.409 112.917 179.085C118.53 176.76 123.629 173.352 127.925 169.057C132.221 164.761 135.628 159.661 137.953 154.049C140.278 148.436 141.474 142.42 141.474 136.345C141.474 130.27 140.278 124.255 137.953 118.642C135.628 113.03 132.221 107.93 127.925 103.634C123.629 99.3386 118.53 95.9311 112.917 93.6063C107.305 91.2815 101.289 90.0849 95.214 90.0849C91.3396 90.0849 87.6238 88.5458 84.8842 85.8062C82.1446 83.0666 80.6055 79.3509 80.6055 75.4764C80.6055 71.602 82.1446 67.8863 84.8842 65.1467C87.6238 62.407 91.3396 60.8679 95.214 60.8679C105.149 60.8318 114.993 62.7574 124.182 66.5343C133.372 70.3112 141.725 75.865 148.762 82.8774C155.8 89.8897 161.385 98.2225 165.195 107.398C169.005 116.573 170.967 126.41 170.967 136.345C170.967 146.28 169.005 156.118 165.195 165.293C161.385 174.468 155.8 182.801 148.762 189.813C141.725 196.826 133.372 202.38 124.182 206.157C114.993 209.934 105.149 211.859 95.214 211.823Z" fill="url(#paint0_linear_4_8)"/>
<path d="M147.53 68.96C154.857 61.9314 160.687 53.4928 164.667 44.1523C168.648 34.8117 170.697 24.7623 170.692 14.609C170.692 10.7346 169.153 7.01885 166.413 4.27922C163.674 1.5396 159.958 0.000488281 156.084 0.000488281C152.209 0.000488281 148.493 1.5396 145.754 4.27922C143.014 7.01885 141.475 10.7346 141.475 14.609C141.471 22.4671 139.466 30.1948 135.648 37.0633C131.831 43.9318 126.327 49.7148 119.655 53.867C129.911 56.8659 139.413 62.0106 147.53 68.96Z" fill="url(#paint1_linear_4_8)"/>
<path d="M75.478 150.954C55.4602 150.954 36.2623 143.002 22.1077 128.847C7.95298 114.693 0.000976562 95.4947 0.000976562 75.477C0.000976562 55.4592 7.95298 36.2614 22.1077 22.1067C36.2623 7.95201 55.4602 0 75.478 0C79.3524 0 83.0681 1.53911 85.8077 4.27873C88.5474 7.01836 90.0865 10.7341 90.0865 14.6085C90.0865 18.4829 88.5474 22.1986 85.8077 24.9383C83.0681 27.6779 79.3524 29.217 75.478 29.217C69.403 29.217 63.3876 30.4135 57.7751 32.7383C52.1625 35.0631 47.0629 38.4706 42.7672 42.7662C38.4716 47.0619 35.0641 52.1615 32.7393 57.7741C30.4145 63.3866 29.218 69.402 29.218 75.477C29.218 81.5519 30.4145 87.5674 32.7393 93.1799C35.0641 98.7924 38.4716 103.892 42.7672 108.188C47.0629 112.483 52.1625 115.891 57.7751 118.216C63.3876 120.54 69.403 121.737 75.478 121.737C79.3524 121.737 83.0681 123.276 85.8077 126.016C88.5474 128.755 90.0865 132.471 90.0865 136.345C90.0865 140.22 88.5474 143.936 85.8077 146.675C83.0681 149.415 79.3524 150.954 75.478 150.954Z" fill="url(#paint2_linear_4_8)"/>
<path d="M23.163 142.862C15.8354 149.891 10.0058 158.329 6.0251 167.67C2.04439 177.011 -0.0051063 187.06 1.17532e-05 197.214C-0.0159448 199.143 0.350137 201.055 1.07713 202.842C1.80412 204.628 2.87765 206.253 4.23576 207.622C5.59387 208.992 7.20969 210.079 8.99 210.82C10.7703 211.562 12.6799 211.944 14.6085 211.944C16.5372 211.944 18.4468 211.562 20.2271 210.82C22.0074 210.079 23.6232 208.992 24.9813 207.622C26.3394 206.253 27.4129 204.628 28.1399 202.842C28.8669 201.055 29.233 199.143 29.217 197.214C29.2209 189.356 31.2263 181.628 35.0441 174.759C38.8618 167.89 44.3662 162.107 51.038 157.955C40.7818 154.956 31.2802 149.811 23.163 142.862Z" fill="#E64A1A"/>
</g>
<defs>
<linearGradient id="paint0_linear_4_8" x1="125.786" y1="211.823" x2="125.786" y2="60.8674" gradientUnits="userSpaceOnUse">
<stop stop-color="#E9592D"/>
<stop offset="1" stop-color="#F39519"/>
</linearGradient>
<linearGradient id="paint1_linear_4_8" x1="133.486" y1="61.8572" x2="179.98" y2="17.7809" gradientUnits="userSpaceOnUse">
<stop offset="0.005" stop-color="#F39519"/>
<stop offset="0.146" stop-color="#F39519"/>
<stop offset="1" stop-color="#F39519"/>
</linearGradient>
<linearGradient id="paint2_linear_4_8" x1="45.0437" y1="150.954" x2="45.0437" y2="0" gradientUnits="userSpaceOnUse">
<stop stop-color="#E9592D"/>
<stop offset="1" stop-color="#F39519"/>
</linearGradient>
</defs>
</svg>
