<svg width="446" height="86" viewBox="0 0 446 86" fill="none" xmlns="http://www.w3.org/2000/svg">
<path d="M47.625 0.375C51.8333 0.375 55.6458 1 59.0625 2.25C62.4792 3.5 65.375 5.20833 67.75 7.375C70.1667 9.54167 72.0208 12.0833 73.3125 15C74.6042 17.875 75.25 20.9375 75.25 24.1875V62.1875C75.25 65.4375 74.6042 68.5208 73.3125 71.4375C72.0208 74.3125 70.1667 76.8333 67.75 79C65.375 81.1667 62.4792 82.875 59.0625 84.125C55.6458 85.375 51.8333 86 47.625 86H28.375C24.1667 86 20.3542 85.375 16.9375 84.125C13.5208 82.875 10.6042 81.1667 8.1875 79C5.8125 76.8333 3.97917 74.3125 2.6875 71.4375C1.39583 68.5208 0.75 65.4375 0.75 62.1875V24.1875C0.75 20.9375 1.39583 17.875 2.6875 15C3.97917 12.0833 5.8125 9.54167 8.1875 7.375C10.6042 5.20833 13.5208 3.5 16.9375 2.25C20.3542 1 24.1667 0.375 28.375 0.375H47.625ZM59.375 38.125L58.5 32.75L54.5 28.8125L48 28.125H34L30.1875 27.375C29.9792 26.6667 29.8333 26.0417 29.75 25.5C29.6667 24.9167 29.5208 24.3125 29.3125 23.6875V17.125L30.1875 13.4375L34.3125 12.625H50.1875L56.0625 13.8125L57.5625 7L50.3125 6H33.875L27.625 6.875L23.5625 10.875L22.75 16.125V24.6875L23.5625 29.9375L27.625 33.875L33.875 34.6875H48L51.8125 35.3125C51.9375 35.9375 52.0833 36.5208 52.25 37.0625C52.4167 37.6042 52.5625 38.1667 52.6875 38.75V46.9375C52.6042 47.4792 52.4583 48.0625 52.25 48.6875C52.0833 49.3125 51.9375 49.8958 51.8125 50.4375L47.75 51.0625H32.25L26.125 50.0625L24.5625 56.8125L31.875 57.6875H48.125L54.5 56.9375L58.5 53L59.375 47.625V38.125ZM121.625 0.375C125.833 0.375 129.646 1 133.062 2.25C136.479 3.5 139.375 5.20833 141.75 7.375C144.167 9.54167 146.021 12.0833 147.312 15C148.604 17.875 149.25 20.9375 149.25 24.1875V62.1875C149.25 65.4375 148.604 68.5208 147.312 71.4375C146.021 74.3125 144.167 76.8333 141.75 79C139.375 81.1667 136.479 82.875 133.062 84.125C129.646 85.375 125.833 86 121.625 86H102.375C98.1667 86 94.3542 85.375 90.9375 84.125C87.5208 82.875 84.6042 81.1667 82.1875 79C79.8125 76.8333 77.9792 74.3125 76.6875 71.4375C75.3958 68.5208 74.75 65.4375 74.75 62.1875V24.1875C74.75 20.9375 75.3958 17.875 76.6875 15C77.9792 12.0833 79.8125 9.54167 82.1875 7.375C84.6042 5.20833 87.5208 3.5 90.9375 2.25C94.3542 1 98.1667 0.375 102.375 0.375H121.625ZM134.125 6H127.5V46.9375C127.417 47.4792 127.271 48.0625 127.062 48.6875C126.896 49.3125 126.729 49.8958 126.562 50.4375L122.5 51.0625H106.5L102.375 50.4375L101.5 46.6875V6H95V47.625L95.75 53L99.8125 56.9375L106.125 57.6875H122.875L129.25 56.9375L133.25 53L134.125 47.625V6ZM195.625 0.375C199.833 0.375 203.646 1 207.062 2.25C210.479 3.5 213.375 5.20833 215.75 7.375C218.167 9.54167 220.021 12.0833 221.312 15C222.604 17.875 223.25 20.9375 223.25 24.1875V62.1875C223.25 65.4375 222.604 68.5208 221.312 71.4375C220.021 74.3125 218.167 76.8333 215.75 79C213.375 81.1667 210.479 82.875 207.062 84.125C203.646 85.375 199.833 86 195.625 86H176.375C172.167 86 168.354 85.375 164.938 84.125C161.521 82.875 158.604 81.1667 156.188 79C153.812 76.8333 151.979 74.3125 150.688 71.4375C149.396 68.5208 148.75 65.4375 148.75 62.1875V24.1875C148.75 20.9375 149.396 17.875 150.688 15C151.979 12.0833 153.812 9.54167 156.188 7.375C158.604 5.20833 161.521 3.5 164.938 2.25C168.354 1 172.167 0.375 176.375 0.375H195.625ZM205.688 37.875L204.5 33.25L199.5 31.0625L204.5 29.1875L205.688 24.4375V16.125L204.812 10.875L200.875 6.875L194.438 6H168.188V57.6875H194.438L200.875 56.9375L204.812 53L205.688 47.75V37.875ZM198.188 50.4375L194.062 51.0625H174.875V34.5625H194.188L198.438 35.0625L199.062 38.75V47.0625L198.188 50.4375ZM198.188 27.25L194.062 28H174.875V12.625H194.062L198.438 13.3125L198.188 17L199.062 23.9375L198.188 27.25ZM282.625 6H276.125V27.875H250.125V6H243.5V57.6875H250.125V34.4375H276.125V57.6875H282.625V6ZM269.625 0.375C273.833 0.375 277.646 1 281.062 2.25C284.479 3.5 287.375 5.20833 289.75 7.375C292.167 9.54167 294.021 12.0833 295.312 15C296.604 17.875 297.25 20.9375 297.25 24.1875V62.1875C297.25 65.4375 296.604 68.5208 295.312 71.4375C294.021 74.3125 292.167 76.8333 289.75 79C287.375 81.1667 284.479 82.875 281.062 84.125C277.646 85.375 273.833 86 269.625 86H250.375C246.167 86 242.354 85.375 238.938 84.125C235.521 82.875 232.604 81.1667 230.188 79C227.812 76.8333 225.979 74.3125 224.688 71.4375C223.396 68.5208 222.75 65.4375 222.75 62.1875V24.1875C222.75 20.9375 223.396 17.875 224.688 15C225.979 12.0833 227.812 9.54167 230.188 7.375C232.604 5.20833 235.521 3.5 238.938 2.25C242.354 1 246.167 0.375 250.375 0.375H269.625ZM343.625 0.375C347.833 0.375 351.646 1 355.062 2.25C358.479 3.5 361.375 5.20833 363.75 7.375C366.167 9.54167 368.021 12.0833 369.312 15C370.604 17.875 371.25 20.9375 371.25 24.1875V62.1875C371.25 65.4375 370.604 68.5208 369.312 71.4375C368.021 74.3125 366.167 76.8333 363.75 79C361.375 81.1667 358.479 82.875 355.062 84.125C351.646 85.375 347.833 86 343.625 86H324.375C320.167 86 316.354 85.375 312.938 84.125C309.521 82.875 306.604 81.1667 304.188 79C301.812 76.8333 299.979 74.3125 298.688 71.4375C297.396 68.5208 296.75 65.4375 296.75 62.1875V24.1875C296.75 20.9375 297.396 17.875 298.688 15C299.979 12.0833 301.812 9.54167 304.188 7.375C306.604 5.20833 309.521 3.5 312.938 2.25C316.354 1 320.167 0.375 324.375 0.375H343.625ZM356.125 6H349.5V46.9375C349.417 47.4792 349.271 48.0625 349.062 48.6875C348.896 49.3125 348.729 49.8958 348.562 50.4375L344.5 51.0625H328.5L324.375 50.4375L323.5 46.6875V6H317V47.625L317.75 53L321.812 56.9375L328.125 57.6875H344.875L351.25 56.9375L355.25 53L356.125 47.625V6ZM417.625 0.375C421.833 0.375 425.646 1 429.062 2.25C432.479 3.5 435.375 5.20833 437.75 7.375C440.167 9.54167 442.021 12.0833 443.312 15C444.604 17.875 445.25 20.9375 445.25 24.1875V62.1875C445.25 65.4375 444.604 68.5208 443.312 71.4375C442.021 74.3125 440.167 76.8333 437.75 79C435.375 81.1667 432.479 82.875 429.062 84.125C425.646 85.375 421.833 86 417.625 86H398.375C394.167 86 390.354 85.375 386.938 84.125C383.521 82.875 380.604 81.1667 378.188 79C375.812 76.8333 373.979 74.3125 372.688 71.4375C371.396 68.5208 370.75 65.4375 370.75 62.1875V24.1875C370.75 20.9375 371.396 17.875 372.688 15C373.979 12.0833 375.812 9.54167 378.188 7.375C380.604 5.20833 383.521 3.5 386.938 2.25C390.354 1 394.167 0.375 398.375 0.375H417.625ZM427.688 37.875L426.5 33.25L421.5 31.0625L426.5 29.1875L427.688 24.4375V16.125L426.812 10.875L422.875 6.875L416.438 6H390.188V57.6875H416.438L422.875 56.9375L426.812 53L427.688 47.75V37.875ZM420.188 50.4375L416.062 51.0625H396.875V34.5625H416.188L420.438 35.0625L421.062 38.75V47.0625L420.188 50.4375ZM420.188 27.25L416.062 28H396.875V12.625H416.062L420.438 13.3125L420.188 17L421.062 23.9375L420.188 27.25Z" fill="black"/>
</svg>
