<svg xmlns="http://www.w3.org/2000/svg" version="1.1" xmlns:xlink="http://www.w3.org/1999/xlink" xmlns:svgjs="http://svgjs.dev/svgjs" width="1000" height="196" viewBox="0 0 1000 196"><g transform="matrix(1,0,0,1,-0.6060604734560684,0.05258017270054438)"><svg viewBox="0 0 396 78" data-background-color="#ffffff" preserveAspectRatio="xMidYMid meet" height="196" width="1000" xmlns="http://www.w3.org/2000/svg" xmlns:xlink="http://www.w3.org/1999/xlink"><g id="tight-bounds" transform="matrix(1,0,0,1,0.240000052511391,-0.020924762605318392)"><svg viewBox="0 0 395.52 78.04184573178715" height="78.04184573178715" width="395.52"><g><svg viewBox="0 0 514.3419488173928 101.487143565417" height="78.04184573178715" width="395.52"><g transform="matrix(1,0,0,1,118.82194881739277,14.026081346595262)"><svg viewBox="0 0 395.52 73.43498087222648" height="73.43498087222648" width="395.52"><g id="textblocktransform"><svg viewBox="0 0 395.52 73.43498087222648" height="73.43498087222648" width="395.52" id="textblock"><g><svg viewBox="0 0 395.52 73.43498087222648" height="73.43498087222648" width="395.52"><g transform="matrix(1,0,0,1,0,0)"><svg width="395.52" viewBox="2.4000000953674316 -35.70000076293945 196.04000854492188 36.400001525878906" height="73.43498087222648" data-palette-color="#77d4fc"><path d="M14 0.7L14 0.7Q11.88 0.7 9.63 0.29 7.38-0.13 5.45-0.71 3.53-1.3 2.4-1.85L2.4-1.85 3.15-8.65Q4.9-7.8 6.8-7.08 8.7-6.35 10.7-5.9 12.7-5.45 14.75-5.45L14.75-5.45Q17.3-5.45 18.85-6.45 20.4-7.45 20.4-9.5L20.4-9.5Q20.4-11.08 19.53-12.04 18.65-13 16.85-13.76 15.05-14.53 12.25-15.5L12.25-15.5Q9.45-16.48 7.23-17.71 5-18.95 3.7-20.85 2.4-22.75 2.4-25.7L2.4-25.7Q2.4-28.6 3.83-30.86 5.25-33.13 8.09-34.41 10.93-35.7 15.15-35.7L15.15-35.7Q18.35-35.7 21.25-34.99 24.15-34.27 26.2-33.45L26.2-33.45 25.55-26.9Q22.6-28.23 20.01-28.91 17.43-29.6 14.75-29.6L14.75-29.6Q11.95-29.6 10.43-28.68 8.9-27.75 8.9-25.9L8.9-25.9Q8.9-24.43 9.75-23.53 10.6-22.63 12.18-21.99 13.75-21.35 15.95-20.65L15.95-20.65Q19.75-19.45 22.34-18.01 24.93-16.57 26.24-14.54 27.55-12.5 27.55-9.5L27.55-9.5Q27.55-8 27.08-6.24 26.6-4.48 25.2-2.9 23.8-1.33 21.11-0.31 18.43 0.7 14 0.7ZM46.95 0.7L46.95 0.7Q42.02 0.7 38.81-1.25 35.6-3.2 34.02-6.73 32.45-10.25 32.45-15L32.45-15 32.45-35 38.85-35 38.85-16.65Q38.85-14.15 39.17-12.09 39.5-10.03 40.36-8.54 41.22-7.05 42.82-6.25 44.42-5.45 46.95-5.45L46.95-5.45Q49.47-5.45 51.07-6.25 52.67-7.05 53.53-8.54 54.4-10.03 54.72-12.09 55.05-14.15 55.05-16.65L55.05-16.65 55.05-35 61.45-35 61.45-15Q61.45-10.25 59.87-6.73 58.3-3.2 55.09-1.25 51.87 0.7 46.95 0.7ZM83.34 0L68.74 0 68.74-35 81.94-35Q87.02-35 89.48-32.84 91.94-30.68 91.94-26.55L91.94-26.55Q91.94-23.48 90.56-21.41 89.17-19.35 86.39-18.4L86.39-18.4 86.39-19.6Q90.59-18.7 92.67-16.3 94.75-13.9 94.75-9.95L94.75-9.95Q94.75-5.23 91.69-2.61 88.64 0 83.34 0L83.34 0ZM75.14-15.55L75.14-5.7 82.39-5.7Q85.02-5.7 86.58-6.78 88.14-7.85 88.14-10.65L88.14-10.65Q88.14-13.5 86.5-14.53 84.84-15.55 82.39-15.55L82.39-15.55 75.14-15.55ZM75.14-29.3L75.14-21.25 81-21.25Q83.32-21.25 84.48-22.2 85.64-23.15 85.64-25.25L85.64-25.25Q85.64-27.43 84.48-28.36 83.32-29.3 81-29.3L81-29.3 75.14-29.3ZM106.44 0L100.04 0 100.04-35 106.44-35 106.44-21.15 122.44-21.15 122.44-35 128.84-35 128.84 0 122.44 0 122.44-15.15 106.44-15.15 106.44 0ZM150.64 0.7L150.64 0.7Q145.72 0.7 142.5-1.25 139.29-3.2 137.72-6.73 136.14-10.25 136.14-15L136.14-15 136.14-35 142.54-35 142.54-16.65Q142.54-14.15 142.87-12.09 143.19-10.03 144.05-8.54 144.91-7.05 146.51-6.25 148.12-5.45 150.64-5.45L150.64-5.45Q153.16-5.45 154.76-6.25 156.37-7.05 157.23-8.54 158.09-10.03 158.41-12.09 158.74-14.15 158.74-16.65L158.74-16.65 158.74-35 165.14-35 165.14-15Q165.14-10.25 163.56-6.73 161.99-3.2 158.78-1.25 155.56 0.7 150.64 0.7ZM187.04 0L172.44 0 172.44-35 185.64-35Q190.71-35 193.18-32.84 195.64-30.68 195.64-26.55L195.64-26.55Q195.64-23.48 194.25-21.41 192.86-19.35 190.09-18.4L190.09-18.4 190.09-19.6Q194.29-18.7 196.36-16.3 198.44-13.9 198.44-9.95L198.44-9.95Q198.44-5.23 195.39-2.61 192.34 0 187.04 0L187.04 0ZM178.84-15.55L178.84-5.7 186.09-5.7Q188.71-5.7 190.28-6.78 191.84-7.85 191.84-10.65L191.84-10.65Q191.84-13.5 190.19-14.53 188.54-15.55 186.09-15.55L186.09-15.55 178.84-15.55ZM178.84-29.3L178.84-21.25 184.69-21.25Q187.01-21.25 188.18-22.2 189.34-23.15 189.34-25.25L189.34-25.25Q189.34-27.43 188.18-28.36 187.01-29.3 184.69-29.3L184.69-29.3 178.84-29.3Z" opacity="1" transform="matrix(1,0,0,1,0,0)" fill="#77d4fc" class="wordmark-text-0" data-fill-palette-color="primary" id="text-0"></path></svg></g></svg></g></svg></g></svg></g><g><svg viewBox="0 0 101.48571227300103 101.487143565417" height="101.487143565417" width="101.48571227300103"><g><svg xmlns="http://www.w3.org/2000/svg" xmlns:xlink="http://www.w3.org/1999/xlink" version="1.1" x="0" y="0" viewBox="9.800000190734863 10.6899995803833 141.73199462890625 141.73399353027344" enable-background="new 0 0 161.492 162.732" xml:space="preserve" height="101.487143565417" width="101.48571227300103" class="icon-icon-0" data-fill-palette-color="accent" id="icon-0"><g fill="#4b91f1" data-fill-palette-color="accent"><path d="M80.666 10.69C41.527 10.69 9.8 42.419 9.8 81.557s31.727 70.867 70.865 70.867 70.867-31.729 70.867-70.867S119.804 10.69 80.666 10.69zM49.813 118.028c-2.212 2.212-4.898 3.318-8.059 3.318-3.162 0-5.822-1.018-7.981-3.054-2.161-2.038-3.311-4.601-3.45-7.693h6.794c0.035 1.406 0.483 2.538 1.345 3.397 0.86 0.862 2.01 1.292 3.451 1.292 1.404 0 2.544-0.413 3.423-1.238 0.876-0.825 1.317-1.887 1.317-3.188 0-2.281-1.58-4.001-4.74-5.162-2.53-0.911-4.208-1.58-5.031-2.001-0.827-0.421-1.607-1.001-2.344-1.738-1.97-1.931-2.951-4.301-2.951-7.112 0-2.737 1.008-5.091 3.028-7.059 2.021-1.966 4.435-2.951 7.245-2.951 2.879 0 5.293 0.948 7.243 2.846 1.949 1.896 3.011 4.285 3.188 7.164h-6.743c-0.211-2.635-1.494-3.95-3.848-3.95-1.087 0-1.966 0.325-2.633 0.974-0.667 0.65-1.001 1.521-1.001 2.609 0 1.157 0.386 2.054 1.16 2.686 0.773 0.633 2.354 1.371 4.742 2.213 2.737 0.947 4.74 2.021 6.004 3.213 2.107 1.968 3.161 4.427 3.161 7.375C53.132 113.13 52.025 115.816 49.813 118.028zM82.738 107.86c0 4.461-1.202 7.823-3.609 10.089-2.405 2.266-5.365 3.397-8.876 3.397-2.458 0-4.733-0.614-6.822-1.845-2.091-1.228-3.608-2.826-4.557-4.792-0.809-1.722-1.212-4.005-1.212-6.85V85.526h6.48v22.334c0 4.954 2.019 7.429 6.058 7.429s6.06-2.475 6.06-7.429V85.526h6.479V107.86zM110.079 115.762c-1.09 1.652-2.556 2.879-4.4 3.688-1.843 0.809-4.329 1.213-7.452 1.213h-9.378V85.526h6.953c3.021 0 5.276 0.184 6.771 0.551 1.493 0.369 2.835 1.081 4.029 2.135 2.002 1.757 3.004 3.951 3.004 6.585 0 2.949-1.299 5.182-3.899 6.69 2.178 0.843 3.758 2.089 4.742 3.738 0.842 1.407 1.265 3.076 1.265 5.005C111.713 112.268 111.167 114.113 110.079 115.762zM82.407 20.141c33.138 0.926 59.719 28.058 59.719 61.416 0 0.152-0.01 0.301-0.014 0.454C110.702 77.263 86.067 51.898 82.407 20.141z" fill="#4b91f1" data-fill-palette-color="accent"></path><path d="M98.806 105.281h-3.423v9.322h3.265c4.354 0 6.531-1.528 6.531-4.582C105.179 106.861 103.055 105.281 98.806 105.281z" fill="#4b91f1" data-fill-palette-color="accent"></path><path d="M103.125 95.403c0-2.546-1.687-3.821-5.057-3.821h-2.686v7.64h2.105C101.247 99.221 103.125 97.95 103.125 95.403z" fill="#4b91f1" data-fill-palette-color="accent"></path></g></svg></g></svg></g></svg></g><defs></defs></svg><rect width="395.52" height="78.04184573178715" fill="none" stroke="none" visibility="hidden"></rect></g></svg></g></svg>